<?xml version="1.0" encoding="UTF-8"?>
<svg width="25px" height="28px" viewBox="0 0 25 28" version="1.1" xmlns="http://www.w3.org/2000/svg" xmlns:xlink="http://www.w3.org/1999/xlink">
    <title>discord</title>
    <g id="Page-1" stroke="none" stroke-width="1" fill="none" fill-rule="evenodd">
        <g id="Social-Media-3" transform="translate(-36.000000, -771.000000)" fill-rule="nonzero">
            <g id="Group-2" transform="translate(36.000000, 371.000000)">
                <g id="discord" transform="translate(0.000000, 400.000000)">
                    <path d="M21.7236364,0 L2.88242424,0 C1.29357576,0 0,1.288 0,2.884 L0,21.812 C0,23.408 1.29357576,24.696 2.88242424,24.696 L18.8271515,24.696 L18.0819394,22.106 L19.881697,23.772 L21.5830303,25.34 L24.6060606,28 L24.6060606,2.884 C24.6060606,1.288 23.3124848,0 21.7236364,0 Z" id="Shape" fill="#7289DA"></path>
                    <path d="M10.1517576,6.52388366 L10.2923636,6.692 C7.76145455,7.42 6.59442424,8.526 6.59442424,8.526 C6.59442424,8.526 6.90375758,8.358 7.424,8.12 C8.92848485,7.462 10.1236364,7.28 10.6157576,7.238 C10.7001212,7.224 10.7704242,7.21 10.8547879,7.21 C11.7124848,7.098 12.6826667,7.07 13.6950303,7.182 C15.0307879,7.336 16.4649697,7.728 17.9272727,8.526 C17.9272727,8.526 16.8164848,7.476 14.4261818,6.748 L14.6230303,6.52388366 L14.6789915,6.52422291 C15.0092752,6.53104576 16.7518061,6.6332 18.5740606,7.994 C18.5740606,7.994 20.5987879,11.648 20.5987879,16.156 C20.5987879,16.156 19.4036364,18.186 16.2962424,18.284 C16.2962424,18.284 15.7900606,17.682 15.3682424,17.15 C17.2101818,16.632 17.9132121,15.484 17.9132121,15.484 C17.3367273,15.862 16.7883636,16.128 16.2962424,16.31 C15.5932121,16.604 14.918303,16.8 14.2574545,16.912 C12.9076364,17.164 11.670303,17.094 10.6157576,16.898 C9.81430303,16.744 9.12533333,16.52 8.54884848,16.296 C8.22545455,16.17 7.87393939,16.016 7.52242424,15.82 C7.48024242,15.792 7.43806061,15.778 7.39587879,15.75 C7.36775758,15.736 7.35369697,15.722 7.33963636,15.708 C7.08654545,15.568 6.94593939,15.47 6.94593939,15.47 C6.94593939,15.47 7.62084848,16.59 9.40654545,17.122 C8.98472727,17.654 8.46448485,18.284 8.46448485,18.284 C5.35709091,18.186 4.176,16.156 4.176,16.156 C4.176,11.648 6.20072727,7.994 6.20072727,7.994 C8.22545455,6.482 10.1517576,6.52388366 10.1517576,6.52388366 Z M9.85375726,11.8787879 C9.08877883,11.8787879 8.48484848,12.6431886 8.48484848,13.5757576 C8.48484848,14.5083265 9.1021995,15.2727273 9.85375726,15.2727273 C10.6187357,15.2727273 11.222666,14.5083265 11.222666,13.5757576 C11.2360867,12.6431886 10.6187357,11.8787879 9.85375726,11.8787879 Z M14.7523033,11.8787879 C13.9873249,11.8787879 13.3833946,12.6431886 13.3833946,13.5757576 C13.3833946,14.5083265 14.0007456,15.2727273 14.7523033,15.2727273 C15.5172818,15.2727273 16.1212121,14.5083265 16.1212121,13.5757576 C16.1212121,12.6431886 15.5172818,11.8787879 14.7523033,11.8787879 Z" id="Combined-Shape" fill="#FFFFFF"></path>
                </g>
            </g>
        </g>
    </g>
</svg>