<?xml version="1.0" encoding="UTF-8"?>
<svg width="101px" height="100px" viewBox="0 0 101 100" version="1.1" xmlns="http://www.w3.org/2000/svg" xmlns:xlink="http://www.w3.org/1999/xlink">
    <title>facebook</title>
    <defs>
        <polygon id="path-1" points="0.005859375 0.00390625 100 0.00390625 100 99.3925781 0.005859375 99.3925781"></polygon>
    </defs>
    <g id="Page-1" stroke="none" stroke-width="1" fill="none" fill-rule="evenodd">
        <g id="facebook">
            <g id="Group-3">
                <mask id="mask-2" fill="white">
                    <use xlink:href="#path-1"></use>
                </mask>
                <g id="Clip-2"></g>
                <path d="M100,50 C100,22.3857422 77.6142578,0 50,0 C22.3857422,0 0,22.3857422 0,50 C0,74.9564453 18.2842773,95.6416016 42.1875,99.3925781 L42.1875,64.453125 L29.4921875,64.453125 L29.4921875,50 L42.1875,50 L42.1875,38.984375 C42.1875,26.453125 49.6521484,19.53125 61.0732422,19.53125 C66.5436523,19.53125 72.265625,20.5078125 72.265625,20.5078125 L72.265625,32.8125 L65.9607422,32.8125 C59.7495117,32.8125 57.8125,36.6666992 57.8125,40.6208008 L57.8125,50 L71.6796875,50 L69.4628906,64.453125 L57.8125,64.453125 L57.8125,99.3925781 C81.7157227,95.6416016 100,74.9564453 100,50" id="Fill-1" fill="#1877F2" mask="url(#mask-2)"></path>
            </g>
            <path d="M69.4628906,64.453125 L71.6796875,50 L57.8125,50 L57.8125,40.6208008 C57.8125,36.6666992 59.7495117,32.8125 65.9607422,32.8125 L72.265625,32.8125 L72.265625,20.5078125 C72.265625,20.5078125 66.5436523,19.53125 61.0732422,19.53125 C49.6521484,19.53125 42.1875,26.453125 42.1875,38.984375 L42.1875,50 L29.4921875,50 L29.4921875,64.453125 L42.1875,64.453125 L42.1875,99.3925781 C44.7331055,99.7919922 47.3421875,100 50,100 C52.6578125,100 55.2668945,99.7919922 57.8125,99.3925781 L57.8125,64.453125 L69.4628906,64.453125" id="Fill-4" fill="#FFFFFF"></path>
        </g>
    </g>
</svg>