<?xml version="1.0" encoding="UTF-8"?>
<svg width="20px" height="28px" viewBox="0 0 20 28" version="1.1" xmlns="http://www.w3.org/2000/svg" xmlns:xlink="http://www.w3.org/1999/xlink">
    <title>Combined Shape</title>
    <g id="Page-1" stroke="none" stroke-width="1" fill="none" fill-rule="evenodd">
        <g id="Social-Media-1" transform="translate(-40.000000, -371.000000)" fill="#FFFFFF" fill-rule="nonzero">
            <g id="Group-2" transform="translate(36.000000, 371.000000)">
                <path d="M20.25,0 C22.3210678,0 24,1.70945823 24,3.81818182 L24,3.81818182 L24,24.1818182 C24,26.2905418 22.3210678,28 20.25,28 L20.25,28 L7.75,28 C5.67893219,28 4,26.2905418 4,24.1818182 L4,24.1818182 L4,3.81818182 C4,1.70945823 5.67893219,0 7.75,0 L7.75,0 Z M20.25,2.54545455 L7.75,2.54545455 C7.05964406,2.54545455 6.5,3.11527395 6.5,3.81818182 L6.5,3.81818182 L6.5,24.1818182 C6.5,24.884726 7.05964406,25.4545455 7.75,25.4545455 L7.75,25.4545455 L20.25,25.4545455 C20.9403559,25.4545455 21.5,24.884726 21.5,24.1818182 L21.5,24.1818182 L21.5,3.81818182 C21.5,3.11527395 20.9403559,2.54545455 20.25,2.54545455 L20.25,2.54545455 Z M14.0049751,21 C14.5545122,21 15,21.4477153 15,22 C15,22.5128358 14.6158804,22.9355072 14.121016,22.9932723 L13.9950249,23 C13.4454878,23 13,22.5522847 13,22 C13,21.4871642 13.3841196,21.0644928 13.878984,21.0067277 L14.0049751,21 Z" id="Combined-Shape"></path>
            </g>
        </g>
    </g>
</svg>