<?xml version="1.0" encoding="UTF-8"?>
<svg width="125px" height="102px" viewBox="0 0 125 102" version="1.1" xmlns="http://www.w3.org/2000/svg" xmlns:xlink="http://www.w3.org/1999/xlink">
    <title>twitter</title>
    <g id="Page-1" stroke="none" stroke-width="1" fill="none" fill-rule="evenodd">
        <path d="M83.2419534,1.02219756 L83.2419534,1 L89.0133185,1 L91.1220866,1.42175361 C92.5279689,1.69556049 93.8043285,2.05438402 94.9511654,2.49833518 C96.0981132,2.94228635 97.2079911,3.46026637 98.2807991,4.05216426 C99.3537181,4.64406215 100.326748,5.24716981 101.199889,5.86126526 C102.065594,6.46803552 102.842508,7.11176471 103.530633,7.79245283 C104.21121,8.48057714 105.27303,8.6581576 106.715871,8.32519423 C108.158713,7.99223085 109.712542,7.52974473 111.377358,6.93784684 C113.042175,6.34594895 114.688568,5.6800222 116.316315,4.94006659 C117.944173,4.20011099 118.935738,3.73029967 119.290899,3.53052164 C119.638624,3.32341842 119.82364,3.21243063 119.845838,3.19755827 L119.867925,3.16426193 L119.978912,3.10876804 L120.0899,3.05327414 L120.200888,2.99778024 L120.311876,2.94228635 L120.334073,2.90899001 L120.36737,2.88679245 L120.400777,2.86459489 L120.422863,2.83129856 L120.533851,2.79800222 L120.644839,2.77580466 L120.622752,2.94228635 L120.589345,3.10876804 L120.533851,3.27524972 L120.478357,3.44173141 L120.422863,3.5527192 L120.36737,3.66370699 L120.311876,3.83018868 C120.274917,3.94117647 120.237958,4.0891232 120.200888,4.27413984 C120.163929,4.45915649 119.812431,5.19900111 119.146504,6.49389567 C118.480577,7.78879023 117.648169,9.10210877 116.649279,10.4339623 C115.650388,11.7658158 114.755161,12.7720311 113.963485,13.4528302 C113.164373,14.1409545 112.635294,14.6218646 112.376249,14.8956715 C112.117314,15.1768036 111.802886,15.4357381 111.432852,15.672586 L110.877913,16.0388457 L110.766926,16.0943396 L110.655938,16.1498335 L110.633851,16.1831299 L110.600444,16.2053274 L110.567148,16.227525 L110.54495,16.2608213 L110.433962,16.3163152 L110.322974,16.3718091 L110.300888,16.4051054 L110.267481,16.427303 L110.234184,16.4495006 L110.211987,16.4827969 L110.1899,16.5160932 L110.156493,16.5382908 L110.123196,16.5604883 L110.100999,16.5937847 L110.655938,16.5937847 L113.763596,15.9278579 C115.835405,15.4839068 117.81465,14.9475028 119.701443,14.318535 L122.698113,13.3196448 L123.031077,13.208657 L123.197558,13.1531632 L123.308546,13.0976693 L123.419534,13.0421754 L123.530522,12.9866815 L123.641509,12.9311876 L123.863485,12.8978912 L124.085461,12.8756937 L124.085461,13.0976693 L124.029967,13.1198668 L123.974473,13.1531632 L123.952386,13.1864595 L123.918979,13.208657 L123.885683,13.2308546 L123.863485,13.2641509 L123.841398,13.2974473 L123.807991,13.3196448 L123.774695,13.3418424 L123.752497,13.3751387 L123.730411,13.4084351 L123.697003,13.4306326 L123.641509,13.5416204 L123.586016,13.6526082 L123.552719,13.6748058 C123.537958,13.6970033 123.068147,14.3258602 122.143174,15.5615982 C121.218313,16.8046615 120.718868,17.4335183 120.644839,17.4483907 C120.570921,17.4705882 120.467259,17.581576 120.334073,17.7813541 C120.208324,17.9884573 119.423973,18.8135405 117.981132,20.2563818 C116.538291,21.6992231 115.125194,22.9829079 113.741509,24.1076582 C112.350499,25.2397336 111.647503,26.6307436 111.632741,28.2807991 C111.610544,29.9234184 111.525416,31.7806881 111.377358,33.8523862 C111.229412,35.9241953 110.951942,38.1623751 110.54495,40.5671476 C110.138069,42.9719201 109.509101,45.691121 108.658158,48.7247503 C107.807325,51.7583796 106.771365,54.718091 105.550499,57.6037736 C104.329634,60.4894562 103.053274,63.0791343 101.721421,65.372919 C100.389567,67.6667037 99.1687014,69.60899 98.0588235,71.199778 C96.9489456,72.790566 95.8206437,74.2889012 94.6736959,75.6947836 C93.526859,77.1006659 92.0766926,78.6841287 90.3230855,80.445061 C88.5620422,82.1986681 87.600222,83.1605993 87.4374029,83.3307436 C87.2672586,83.4935627 86.5421754,84.100333 85.2619312,85.1509434 C83.9893452,86.20899 82.6204218,87.2670366 81.1553829,88.3251942 C79.6977802,89.3759156 78.3584906,90.2527192 77.1376249,90.9556049 C75.9167592,91.6584906 74.4443951,92.4612653 72.7203108,93.36404 C71.0037736,94.2741398 69.1465039,95.1176471 67.1487236,95.8945616 C65.1509434,96.6714761 63.0421754,97.3928968 60.8224195,98.0588235 C58.6026637,98.7247503 56.4569367,99.2427303 54.3851276,99.6126526 C52.3134295,99.9825749 49.9641509,100.297114 47.3374029,100.556049 L43.3973363,100.944506 L43.3973363,101 L36.1831299,101 L36.1831299,100.944506 L35.2397336,100.889012 C34.6108768,100.852053 34.0928968,100.814983 33.6859046,100.778024 C33.2790233,100.741065 31.7436182,100.537514 29.0799112,100.167592 C26.4162042,99.7976693 24.3259711,99.427636 22.809101,99.0577137 C21.2923418,98.6877913 19.0355161,97.9847947 16.0388457,96.9489456 C13.0421754,95.9130966 10.4783574,94.8660377 8.34739179,93.8079911 C6.22386238,92.7572697 4.89200888,92.091343 4.3518313,91.8102109 C3.8190899,91.536404 3.21975583,91.1961154 2.55382908,90.7891232 L1.55493896,90.1786903 L1.53285239,90.145394 L1.49944506,90.1231964 L1.46614872,90.1009989 L1.44395117,90.0677026 L1.33296337,90.0122087 L1.22197558,89.9567148 L1.19988901,89.9234184 L1.16648169,89.9012209 L1.13318535,89.8790233 L1.11098779,89.845727 L1.08890122,89.8124306 L1.0554939,89.7902331 L1,89.7902331 L1,89.5682575 L1.11098779,89.590455 L1.22197558,89.6237514 L1.72142064,89.6792453 C2.05438402,89.7162042 2.96082131,89.7716981 4.44062153,89.845727 C5.92053274,89.9197558 7.49278579,89.9197558 9.15760266,89.845727 C10.8224195,89.7716981 12.5243063,89.6052164 14.2630411,89.3462819 C16.0018868,89.0873474 18.0551609,88.6433962 20.4228635,88.0144284 C22.790677,87.3854606 24.9660377,86.6381798 26.9490566,85.772475 C28.9246393,84.8994451 30.3304107,84.2482797 31.1665927,83.8190899 C31.9952275,83.3973363 33.2604883,82.6129856 34.9622642,81.4661487 L37.5149834,79.745838 L37.5371809,79.7125416 L37.5704772,79.6903441 L37.6038846,79.6681465 L37.6259711,79.6348502 L37.6481687,79.6015538 L37.681465,79.5793563 L37.7148724,79.5571587 L37.7369589,79.5238624 L37.8479467,79.490566 L37.9589345,79.4683685 L37.9811321,79.3573807 L38.0144284,79.2463929 L38.0478357,79.2241953 L38.0699223,79.190899 L37.18202,79.1354051 C36.5901221,79.0984462 36.0166482,79.0613762 35.4617092,79.0244173 C34.9067703,78.9874584 34.0374029,78.8209767 32.8534961,78.5249723 C31.6697003,78.2289678 30.3933407,77.7850166 29.0244173,77.1931188 C27.6556049,76.6012209 26.3237514,75.8982242 25.0288568,75.0843507 C23.7340733,74.2704772 22.7980022,73.5933407 22.2208657,73.0532741 C21.6511654,72.5204218 20.9112098,71.7658158 20.0011099,70.7891232 C19.0984462,69.8051054 18.3140954,68.7950055 17.6481687,67.7591565 C16.982242,66.7233074 16.3459489,65.5281909 15.7392897,64.1742508 L14.81798,62.154273 L14.7624861,61.9877913 L14.7069922,61.8213097 L14.6736959,61.7103219 L14.6514983,61.5993341 L14.81798,61.6215316 L14.9844617,61.654828 L16.2053274,61.8213097 C17.0193119,61.9322974 18.2956715,61.9692564 20.0344062,61.9322974 C21.7732519,61.8953385 22.9755827,61.8213097 23.6415094,61.7103219 C24.3074362,61.5993341 24.7144284,61.5253052 24.8623751,61.4883463 L25.0843507,61.4328524 L25.3618202,61.3773585 L25.6392897,61.3218646 L25.6614872,61.2885683 L25.6947836,61.2663707 L25.7281909,61.2441731 L25.7502775,61.2108768 L25.5283019,61.1553829 L25.3063263,61.099889 L25.0843507,61.0443951 L24.8623751,60.9889012 L24.6403996,60.9334073 C24.4924528,60.8964484 24.2335183,60.8224195 23.863485,60.7114317 C23.4935627,60.600444 22.4946726,60.1934517 20.8668147,59.490566 C19.2390677,58.7876804 17.9441731,58.1032186 16.982242,57.4372919 C16.0179262,56.7694349 15.0984536,56.0390473 14.2297447,55.2508324 C13.36404,54.4517203 12.4133185,53.4231964 11.3773585,52.1653718 C10.3415094,50.9075472 9.41664817,49.4461709 8.60266371,47.7813541 C7.78879023,46.1165372 7.17835738,44.5257492 6.77136515,43.008879 C6.36600952,41.5009315 6.09857531,39.9592563 5.97236404,38.4028857 L5.77247503,36.0721421 L5.88346282,36.0943396 L5.99445061,36.127636 L6.1054384,36.1831299 L6.21642619,36.2386238 L6.32741398,36.2941176 L6.43840178,36.3496115 L8.15871254,37.1265261 C9.30566038,37.6445061 10.7299667,38.0884573 12.4317425,38.4583796 C14.1336293,38.8283019 15.1509434,39.0318535 15.4839068,39.0688124 L15.9833518,39.1243063 L16.982242,39.1243063 L16.9601554,39.09101 L16.9267481,39.0688124 L16.8934517,39.0466149 L16.8712542,39.0133185 L16.8491676,38.9800222 L16.8157603,38.9578246 L16.7824639,38.9356271 L16.7602664,38.9023307 L16.6492786,38.8468368 L16.5382908,38.791343 L16.5162042,38.7580466 L16.4827969,38.7358491 L16.4495006,38.7136515 L16.427303,38.6803552 L16.3163152,38.6248613 L16.2053274,38.5693674 L16.1832408,38.536071 C16.1610433,38.5211987 15.8428413,38.2844617 15.2286349,37.8257492 C14.6218646,37.3596004 13.9855716,36.7566038 13.3196448,36.0166482 C12.6537181,35.2766926 11.9877913,34.499778 11.3218646,33.6859046 C10.6547118,32.8701663 10.0604938,31.9974086 9.54605993,31.0776915 C9.0281909,30.1528302 8.48057714,28.9762486 7.90344062,27.5482797 C7.33374029,26.127636 6.9008879,24.6958935 6.60488346,23.2530522 C6.30899001,21.8102109 6.14250832,20.3859046 6.1054384,18.9800222 C6.06847947,17.5741398 6.1054384,16.3718091 6.21642619,15.372919 C6.32741398,14.3740289 6.54938957,13.245616 6.88235294,11.9877913 C7.21531632,10.7299667 7.6963374,9.39811321 8.32519423,7.99223085 L9.26859046,5.88346282 L9.32408435,5.71698113 L9.37957825,5.55049945 L9.41298557,5.52830189 L9.43507214,5.49500555 L9.4572697,5.46170921 L9.49056604,5.43951165 L9.52397336,5.46170921 L9.54605993,5.49500555 L9.56825749,5.52830189 L9.60155383,5.55049945 L9.63496115,5.572697 L9.65704772,5.60599334 L9.67924528,5.63928968 L9.71254162,5.66148724 L9.76803552,5.77247503 L9.82352941,5.88346282 L9.85693674,5.90566038 L9.87902331,5.93895671 L11.3773585,7.60377358 C12.3762486,8.7136515 13.5601554,9.95305216 14.9289678,11.3218646 C16.2978912,12.690677 17.0562708,13.4009989 17.2042175,13.4528302 C17.3522752,13.5119867 17.5371809,13.682131 17.7591565,13.963374 C17.9811321,14.2371809 18.7210877,14.8920089 19.9789123,15.9278579 C21.2368479,16.963707 22.8831299,18.1661487 24.917869,19.5349612 C26.9527192,20.9037736 29.209434,22.254162 31.6881243,23.5860155 C34.1669256,24.917869 36.8306326,26.1201998 39.6792453,27.1931188 C42.5279689,28.2660377 44.5257492,28.9689234 45.672586,29.3018868 C46.8195339,29.6348502 48.7802442,30.0602664 51.554939,30.5782464 C54.3296337,31.0962264 56.4199778,31.4291898 57.8257492,31.5771365 C59.2316315,31.7250832 60.1935627,31.8102109 60.7114317,31.8324084 L61.4883463,31.854606 L61.4662597,31.6881243 L61.4328524,31.5216426 L61.2108768,30.1342952 C61.0629301,29.209434 60.9889012,27.9145394 60.9889012,26.2497225 C60.9889012,24.5849057 61.118424,23.0496115 61.3773585,21.6437292 C61.636404,20.2378468 62.0248613,18.8135405 62.5427303,17.3706992 C63.0607103,15.9278579 63.5675916,14.7698113 64.063263,13.8967814 C64.5664817,13.0310766 65.2249723,12.0432852 66.0388457,10.9334073 C66.8528302,9.82352941 67.9072142,8.67669256 69.2019978,7.49278579 C70.4968923,6.30887902 71.9766926,5.25449501 73.6415094,4.32963374 C75.3063263,3.40477248 76.8417314,2.7017758 78.2475028,2.2208657 C79.6533851,1.7399556 80.8372919,1.4254162 81.7991121,1.27746948 C82.7610433,1.12952275 83.2419534,1.04439512 83.2419534,1.02219756 Z" id="twitter" stroke="#5DA8DC" stroke-width="0.5" fill="#5DA8DC" fill-rule="nonzero"></path>
    </g>
</svg>