<?xml version="1.0" encoding="UTF-8"?>
<svg width="100px" height="100px" viewBox="0 0 100 100" version="1.1" xmlns="http://www.w3.org/2000/svg" xmlns:xlink="http://www.w3.org/1999/xlink">
    <title>whatsapp</title>
    <defs>
        <linearGradient x1="50.0000408%" y1="100%" x2="50.0000408%" y2="0.000171081715%" id="linearGradient-1">
            <stop stop-color="#20B038" offset="0%"></stop>
            <stop stop-color="#60D66A" offset="100%"></stop>
        </linearGradient>
    </defs>
    <g id="Page-1" stroke="none" stroke-width="1" fill="none" fill-rule="evenodd">
        <g id="whatsapp">
            <path d="M84.980261,14.5203915 C75.6285481,5.16223491 63.1935563,0.0057096248 49.9449429,0 C22.6441272,0 0.42675367,22.2102773 0.415823817,49.5098695 C0.412642741,58.2362969 2.69274062,66.7545677 7.02659054,74.2632137 L0,99.919739 L26.2559543,93.0350734 C33.4899674,96.980261 41.6349918,99.0591354 49.9236542,99.0624796 L49.9446982,99.0624796 L49.9449429,99.0624796 C77.241354,99.0624796 99.4620718,76.8482871 99.4736572,49.55 C99.4782219,36.3193312 94.3307504,23.8792007 84.980261,14.5203915 Z M49.9449429,90.7000816 L49.9288744,90.7000816 C42.540783,90.6961664 35.2957586,88.7126427 28.9763458,84.9628059 L27.4724307,84.0712887 L11.8915987,88.1563622 L16.0514682,72.9707178 L15.071615,71.4138662 C10.9504894,64.8611746 8.77487765,57.2886623 8.77797385,49.5130506 C8.787031,26.8225122 27.2532626,8.36272431 49.960522,8.36272431 C60.9566069,8.36729201 71.2915987,12.6534258 79.0644372,20.4316476 C86.8367863,28.2097879 91.1140294,38.5497553 91.1107686,49.5464927 C91.1011419,72.2377651 72.6342577,90.7000816 49.9449429,90.7000816 L49.9449429,90.7000816 Z" id="Shape" fill="#E0E0E0" fill-rule="nonzero"></path>
            <path d="M2.27365416,97.0729201 L8.97928222,72.5884176 C4.84233279,65.4226754 2.66680261,57.2929038 2.66941272,48.966721 C2.68026101,22.9146819 23.8829527,1.71957586 49.9344209,1.71957586 C62.5784666,1.72528548 74.445677,6.64600326 83.3681892,15.5769168 C92.2926591,24.5077488 97.2044861,36.3787928 97.1993515,49.0036705 C97.1884992,75.0563622 75.9845024,96.2533442 49.9362969,96.2533442 C49.9344209,96.2533442 49.937602,96.2533442 49.9362969,96.2533442 L49.9152529,96.2533442 C42.0052202,96.2508157 34.2328711,94.2651713 27.3297716,90.5029364 L2.27365416,97.0729201 L2.27365416,97.0729201 Z" id="Path" fill="url(#linearGradient-1)" fill-rule="nonzero"></path>
            <path d="M37.7057912,28.4905383 C36.789478,26.4532626 35.8247145,26.4124796 34.9529364,26.3768352 C34.2398858,26.346248 33.4235726,26.3481016 32.6085644,26.3481016 C31.7929038,26.3481016 30.4674551,26.6546493 29.3465742,27.8787928 C28.2250408,29.1029364 25.0643556,32.0622349 25.0643556,38.0809135 C25.0643556,44.1002447 29.4485318,49.9163132 30.0596248,50.7331974 C30.6713703,51.5488581 38.5227569,64.2948613 50.9570962,69.1983687 C61.2911093,73.273491 63.3940457,72.4628874 65.6371126,72.2589723 C67.8801794,72.0550571 72.8747961,69.3003263 73.8943719,66.4435563 C74.9139478,63.5874388 74.9139478,61.1392333 74.608075,60.6274878 C74.3022023,60.1176998 73.4865416,59.8118271 72.2630506,59.2000816 C71.0395595,58.5883361 65.025367,55.628385 63.9038336,55.2205546 C62.7823002,54.8127243 61.9666395,54.6088091 61.1509788,55.8336052 C60.3353181,57.0570962 57.9921697,59.8118271 57.2784666,60.6274878 C56.5647635,61.4450245 55.8510604,61.5469821 54.6275693,60.9352365 C53.4040783,60.321615 49.4640294,59.0311582 44.7899674,54.8636215 C41.1532626,51.6213703 38.6979608,47.6169657 37.9842577,46.3922512 C37.2705546,45.1687602 37.9077488,44.5060359 38.5214519,43.8961664 C39.0707178,43.348124 39.7449429,42.4681077 40.3566884,41.753752 C40.9671289,41.0393964 41.171044,40.5296085 41.5788744,39.7139478 C41.9867047,38.8969821 41.7827896,38.182708 41.4769168,37.5709625 C41.171044,36.959217 38.7935563,30.9094617 37.7057912,28.4905383 L37.7057912,28.4905383 Z" id="Path" fill="#FFFFFF"></path>
            <path d="M84.5756933,14.3630506 C75.3313214,5.11231648 63.0390701,0.0150897227 49.9426591,0.00929853181 C22.9551387,0.00929853181 0.992822186,21.9646003 0.981973899,48.9508157 C0.978792822,57.5771615 3.23270799,65.997553 7.51680261,73.4200653 L0.57096248,98.7819739 L26.5255302,91.9762643 C33.6765905,95.8761011 41.7280587,97.9312398 49.921615,97.9344209 L49.9424144,97.9344209 L49.9426591,97.9344209 C76.9256933,97.9344209 98.8911909,75.9752855 98.9026946,48.9902936 C98.9071778,35.9117455 93.8188418,23.6144372 84.5756933,14.3630506 L84.5756933,14.3630506 Z M49.9426591,89.6682708 L49.9267537,89.6682708 C42.6234095,89.6644372 35.4615008,87.7036705 29.2146819,83.9969005 L27.7279772,83.1155791 L12.3260196,87.153752 L16.4380914,72.1424144 L15.4694943,70.6035073 C11.395677,64.1260196 9.24502447,56.6403752 9.24820202,48.9540783 C9.25709625,26.524062 27.5113377,8.27618271 49.9579935,8.27618271 C60.8279772,8.28066884 71.0441272,12.5176183 78.7278956,20.2065253 C86.4110114,27.8954323 90.6390701,38.1166395 90.6358909,48.9872757 C90.6262643,71.417863 72.3713703,89.6682708 49.9426591,89.6682708 Z" id="Shape" fill="#FFFFFF" fill-rule="nonzero"></path>
        </g>
    </g>
</svg>